<?xml version="1.0" encoding="utf-8"?>
<!-- Generator: Adobe Illustrator 25.3.1, SVG Export Plug-In . SVG Version: 6.00 Build 0)  -->
<svg version="1.1" id="Layer_1" xmlns="http://www.w3.org/2000/svg" xmlns:xlink="http://www.w3.org/1999/xlink" x="0px" y="0px"
	 viewBox="0 0 100 100" style="enable-background:new 0 0 100 100;" xml:space="preserve">
<style type="text/css">
	.st0{fill:#3A55DD;}
</style>
<g>
	<g>
		<path class="st0" d="M82.8,69.8c-0.5-2.5-1.3-4.9-3.3-6.6c-1.3-1.1-2.8-2.1-4.3-2.9c-4.6-2.6-9.3-5.1-14-7.6
			c-4.8-2.6-9.7-5.1-14.6-7.7c-2.1-1.1-4-2.5-5.2-4.7c-2.6-4.7-5.3-9.5-7.8-14.2c-1.3-2.4-1.9-2.7-4.5-1.9c-0.1,0-0.2,0.1-0.3,0.1
			c-1,0.3-1.5,0.9-1.6,1.9c-0.1,0.9-0.3,1.7-0.6,2.5c-0.8,2.6-2.9,4.1-5,5.6c-3,2.2-6.4,3.3-10.1,2.2c-1.7-0.5-3.2-1.4-4.8-2
			c-1.2-0.4-2.4-0.8-3.6-0.8c-1.6,0-2.3,1.1-1.9,2.6c0.2,0.9,0.6,1.7,1,2.5c1,2.1,2.2,4.1,2.4,6.5c0.2,2.1,0.2,4.3,0.3,6.4
			c0,3.3-0.1,6.7-1.3,9.8c-1,2.8-1.2,5.5-1.1,8.4c0,1.1,0.3,1.4,1.4,1.4c16.8,0.1,33.5,0.2,50.3,0.2c9.1,0,18.3,0.1,27.4,0.1
			c0.4,0,0.9,0,1.4,0C83,71.1,82.9,70.4,82.8,69.8z M46.2,48.6c-0.3,0-0.9-0.5-0.9-0.8c0-0.4,0.4-0.8,0.7-1.1c0.2,0,0.3,0,0.5,0
			c0.2,0.4,0.7,0.8,0.6,1.2C47.1,48.1,46.5,48.6,46.2,48.6z M50.6,51c-0.3,0-0.6-0.6-0.9-0.9c0.3-0.3,0.6-0.8,1-0.9
			c0.3-0.1,0.7,0.4,1.3,0.9C51.3,50.6,50.9,51.1,50.6,51z M55.3,53.5c-0.3-0.3-0.8-0.6-0.9-1c0-0.3,0.5-0.7,1-1.3
			c0.4,0.6,0.8,1,0.8,1.3C56.1,53,55.6,53.2,55.3,53.5z M60.9,54.9c-0.1,0.4-0.5,0.7-0.9,1.1c-0.3-0.3-0.9-0.6-0.9-1
			c-0.1-0.3,0.5-0.7,0.9-1.3C60.4,54.2,60.9,54.5,60.9,54.9z M66.5,58c-0.1,0.4-0.5,0.7-0.8,1.1c-0.3-0.3-0.9-0.6-0.9-1
			c-0.1-0.3,0.4-0.7,0.8-1.3C66.1,57.4,66.6,57.7,66.5,58z M70.2,61.1c-0.3,0-0.8-0.5-0.9-0.8c-0.1-0.4,0.4-0.8,0.6-1.2
			c0.2,0,0.3,0,0.5,0c0.3,0.4,0.7,0.7,0.7,1.1C71,60.5,70.5,61.1,70.2,61.1z"/>
		<path class="st0" d="M2.7,75.2v-2c0-0.5,0.4-0.9,0.9-0.9c0.3,0,0.5,0,0.8,0c15.4,0.1,30.9,0.3,46.3,0.4
			c11.2,0.1,22.3,0.2,33.5,0.3c4.8,0.1,9.5-0.8,13.9-2.7c0.2-0.1,0.3-0.1,0.5-0.2c0.1,0,0.2,0,0.2,0.1l0,0c0.1,0.1,0,0.2,0,0.3
			c-1.4,1.1-2.8,2.2-4.2,3.1c-2.5,1.6-5.4,2.3-8.3,2.3c-10.6,0.1-21.3,0.1-31.9,0.1c-15.4,0-30.9,0-46.3,0c-1.4,0-2.9,0-4.4,0
			C3.2,76.1,2.7,75.7,2.7,75.2z"/>
		<path class="st0" d="M2.7,79.9l0-1.9c0-0.5,0.4-0.9,0.9-0.9c0,0,0,0,0,0c13.8,0.1,27.7,0.3,41.5,0.4c11.9,0.1,23.7,0.2,35.6,0.3
			c3.5,0,7,0.3,10.4-0.5c2.3-0.5,4.5-1.3,6.7-2c0.1,0,0.3-0.1,0.4-0.1c0.2-0.1,0.3,0.2,0.2,0.3c-1.6,1.6-3.4,2.9-5.4,3.8
			c-2.2,1-4.5,1.4-6.8,1.4c-9,0.1-17.9,0.1-26.9,0.1c-5.3,0-10.6,0-15.8,0c-13.1,0-26.2,0-39.3,0c-0.1,0-0.3,0-0.4,0
			C3.2,80.9,2.7,80.4,2.7,79.9z"/>
		<path class="st0" d="M82.3,63.9c3.3,0.6,6.6,1.1,9.9,1.8c1.4,0.3,2.9,0.8,4.2,1.4c1.2,0.5,1.2,0.9,0.7,2c-0.6,1.1-1.4,1.9-2.6,2.2
			c-3.2,0.6-6.5,0.9-9.9,0.7c-0.3-2.8-0.1-5.6-2.5-7.7C82.2,64.2,82.2,64,82.3,63.9z"/>
	</g>
	<g>
		<path class="st0" d="M48.8,33.2c-1-1.1-1.7-2.1-2.1-2.9c-0.4-0.9-0.6-1.8-0.6-2.7c0-1.5,0.4-2.9,1.2-4.1c0.8-1.3,1.9-2.3,3.3-3.1
			c1.4-0.8,2.9-1.1,4.5-1.1c1.8,0,3.2,0.4,4.2,1.2c1,0.8,1.5,2,1.5,3.4c0,0.7-0.2,1.4-0.5,2.2c-0.4,0.8-0.8,1.5-1.5,2.1
			c-0.4,0.5-0.8,0.8-1.2,1c-0.4,0.2-0.7,0.4-0.9,0.4c-0.3,0-0.5-0.3-0.5-0.8c0,0,0-0.2,0.1-0.6c0.1-0.6,0.1-1.1,0.1-1.6
			c0-0.7-0.1-1.3-0.3-2c-0.2-0.7-0.4-1.2-0.7-1.7c-0.3-0.4-0.6-0.7-0.8-0.7c-0.1,0-0.3,0.1-0.4,0.3c-0.3,0.4-0.6,0.8-0.7,1.3
			c-0.2,0.5-0.3,1-0.3,1.5c0,0.6,0.1,1.1,0.2,1.6c0.2,0.5,0.4,1,0.8,1.5c0.4,0.5,0.9,1.1,1.5,1.7c1,1,1.8,1.8,2.3,2.5
			c0.5,0.7,0.9,1.4,1.2,2.2c0.2,0.7,0.4,1.5,0.4,2.3c0,1.5-0.4,2.9-1.1,4.3c-0.7,1.4-1.7,2.5-2.9,3.3c-1.2,0.8-2.4,1.3-3.7,1.3
			c-1.2,0-2.4-0.3-3.5-0.8c-1.1-0.6-2.2-1.4-3.2-2.4c-1-1.1-1.6-2.1-1.6-2.9c0-0.5,0.2-1,0.7-1.5c0.5-0.5,1.1-0.9,1.7-1.3
			c0.7-0.4,1.3-0.5,1.7-0.5c0.3,0,0.5,0.1,0.7,0.2c0.2,0.1,0.4,0.4,0.5,0.7c0.1,0.3,0.3,0.8,0.4,1.4c0.2,0.8,0.4,1.5,0.6,1.9
			c0.2,0.4,0.5,0.8,0.8,1.2c0.4,0.4,0.7,0.6,1.1,0.6c0.5,0,0.8-0.2,1.1-0.6c0.3-0.4,0.4-0.9,0.4-1.6c0-1.1-0.4-2.2-1.1-3.3
			c-0.2-0.4-0.4-0.7-0.7-1c-0.3-0.3-0.8-0.8-1.7-1.6C49.8,34.2,49.4,33.8,48.8,33.2z"/>
		<path class="st0" d="M70.5,32.9l0.5-1.1c0.5-1,1-1.8,1.4-2.5c0.4-0.7,0.8-1.1,1.2-1.4c0.3-0.3,0.7-0.6,1.2-0.7
			c0.4-0.2,0.8-0.2,1.3-0.2c0.9,0,1.7,0.3,2.4,0.9s1.2,1.4,1.6,2.5c0.4,1.1,0.6,2.3,0.6,3.7c0,2-0.4,3.9-1.2,5.7
			c-0.8,1.8-1.9,3.3-3.3,4.4c-1.3,1.1-2.7,1.7-4.2,1.7c-0.8,0-1.5-0.2-2.1-0.6c-0.6-0.4-1.1-1-1.5-2l-0.1,0.3L68.2,44
			c-0.8,2.6-1.4,4.6-1.8,5.8c-0.5,1.2-0.8,2-1.2,2.3c-0.3,0.3-0.6,0.4-0.9,0.4c-0.7,0-1.2-0.4-1.6-1.1c-0.4-0.7-0.6-1.7-0.6-3
			c0-1.4,0.1-3.1,0.4-5c0.3-2,0.7-3.9,1.2-6c0.5-2,1.1-3.9,1.7-5.5c0.4-1,0.8-1.9,1.3-2.7c0.5-0.8,0.9-1.3,1.4-1.7
			c0.3-0.2,0.7-0.3,1-0.3c0.5,0,1,0.2,1.2,0.5c0.3,0.3,0.4,0.8,0.4,1.4c0,0.5,0,1-0.1,1.6C70.6,31.4,70.5,32.1,70.5,32.9L70.5,32.9z
			 M69.2,41c0.3,1,1,1.6,1.9,1.6c0.6,0,1.3-0.3,1.8-0.9c0.6-0.6,1-1.5,1.3-2.5c0.3-1.1,0.5-2.2,0.5-3.4c0-0.9-0.1-1.7-0.2-2.4
			c-0.1-0.7-0.3-1-0.5-1c-0.1,0-0.4,0.3-0.9,1c-0.5,0.7-1,1.5-1.4,2.3c-1,1.7-1.7,3.2-2.2,4.6C69.3,40.5,69.2,40.8,69.2,41z"/>
		<path class="st0" d="M84.7,45.6c-0.5,0-1-0.3-1.4-0.8c-0.4-0.5-0.7-1.1-0.9-1.6c-0.2-0.6-0.3-1.4-0.3-2.3c0-2.1,0.4-4.5,1.1-7.1
			c0.7-2.6,1.5-4.5,2.5-5.7c0.4-0.5,0.9-0.7,1.5-0.7c0.7,0,1.2,0.3,1.7,1c0.4,0.7,0.6,1.6,0.6,2.6c0,1.6-0.2,3.5-0.6,5.7
			c-0.4,2.2-1,4.4-1.8,6.7c-0.3,0.9-0.7,1.6-1.1,1.9C85.5,45.5,85.1,45.6,84.7,45.6L84.7,45.6z M86.8,26.5c-1.1,0-1.7-0.8-1.7-2.1
			c0-0.7,0.2-1.5,0.5-2.4c0.3-0.9,0.7-1.6,1.1-2c0.2-0.2,0.4-0.4,0.6-0.5c0.2-0.1,0.5-0.2,0.8-0.2c0.6,0,1,0.2,1.3,0.5
			c0.3,0.3,0.4,0.8,0.4,1.5c0,0.9-0.1,1.8-0.4,2.6c-0.3,0.8-0.7,1.5-1.2,2C87.8,26.2,87.3,26.5,86.8,26.5L86.8,26.5z"/>
		<path class="st0" d="M93.7,45.6c-0.5,0-1-0.3-1.4-0.8c-0.4-0.5-0.7-1.1-0.9-1.6c-0.2-0.6-0.3-1.4-0.3-2.3c0-2.1,0.4-4.5,1.1-7.1
			c0.7-2.6,1.5-4.5,2.5-5.7c0.4-0.5,0.9-0.7,1.5-0.7c0.7,0,1.2,0.3,1.7,1c0.4,0.7,0.6,1.6,0.6,2.6c0,1.6-0.2,3.5-0.6,5.7
			c-0.4,2.2-1,4.4-1.8,6.7c-0.3,0.9-0.7,1.6-1.1,1.9C94.5,45.5,94.1,45.6,93.7,45.6L93.7,45.6z M95.8,26.5c-1.1,0-1.7-0.8-1.7-2.1
			c0-0.7,0.2-1.5,0.5-2.4c0.3-0.9,0.7-1.6,1.1-2c0.2-0.2,0.4-0.4,0.6-0.5c0.2-0.1,0.5-0.2,0.8-0.2c0.6,0,1,0.2,1.3,0.5
			c0.3,0.3,0.4,0.8,0.4,1.5c0,0.9-0.1,1.8-0.4,2.6c-0.3,0.8-0.7,1.5-1.2,2C96.9,26.2,96.4,26.5,95.8,26.5L95.8,26.5z"/>
	</g>
</g>
</svg>
